<svg width="151" height="21" viewBox="0 0 151 21" fill="none" xmlns="http://www.w3.org/2000/svg">
<path d="M5.99381 0H18.4043L23 10.5439H18.0272V10.7632C18.9899 10.9776 19.7943 11.3846 20.441 11.9842C21.0878 12.5838 21.5278 13.2617 21.7612 14.0169C21.9945 14.7727 22.0623 15.5624 21.9654 16.386C21.868 17.2101 21.6176 17.9632 21.2141 18.6455C20.8106 19.3279 20.2297 19.8911 19.4712 20.3345C18.7127 20.7784 17.8522 21 16.8895 21H4.59566L0 10.5439H5.54165V10.3391C4.0539 10.0467 2.88927 9.45675 2.04834 8.56964C1.20719 7.68253 0.786667 6.56615 0.786667 5.22075C0.786667 3.85578 1.29942 2.64469 2.32547 1.58659C3.35131 0.528935 4.57394 0 5.99381 0Z" fill="black"/>
<path d="M83.599 17.0222V3.5244H90.2462C92.8889 3.5244 94.3118 4.9474 94.3118 7.20369C94.3118 8.36252 93.6004 9.33827 92.6653 9.72445C93.8037 10.1514 94.7185 11.0661 94.7185 12.9972C94.7185 15.4571 93.0718 17.0222 89.6771 17.0222L83.599 17.0222ZM86.3229 5.86207V8.78932H89.8804C90.9984 8.78932 91.5879 8.28113 91.5879 7.32584C91.5879 6.28902 91.039 5.86207 89.7177 5.86207L86.3229 5.86207ZM89.9007 14.7252C91.2017 14.7252 91.9742 13.8918 91.9742 12.794C91.9742 11.615 91.2017 11.0865 89.9414 11.0865H86.3229V14.7252H89.9007Z" fill="black"/>
<path d="M106.06 12.0218C106.06 8.85065 108.032 6.75684 111.203 6.75684C114.334 6.75684 116.285 8.83019 116.285 12.0218C116.285 15.193 114.313 17.2867 111.203 17.2867C107.971 17.2867 106.06 15.1321 106.06 12.0218ZM113.622 12.0218C113.622 9.98902 112.809 8.99296 111.203 8.99296C109.597 8.99296 108.784 9.98902 108.784 12.0218C108.784 14.0546 109.597 15.071 111.203 15.071C112.809 15.071 113.622 14.0546 113.622 12.0218Z" fill="black"/>
<path d="M122.944 10.0499C122.802 9.0742 122.274 8.72864 121.074 8.72864C120.078 8.72864 119.509 8.9725 119.509 9.56207C119.509 10.1516 120.058 10.3955 121.135 10.7004C122.274 11.0257 123.351 11.2492 124.123 11.5543C125.18 11.9811 125.77 12.6723 125.77 13.9732C125.77 16.0468 124.245 17.2867 121.399 17.2867C118.33 17.2867 116.622 15.8435 116.582 13.8106H119.306C119.306 14.7458 120.098 15.2946 121.379 15.2946C122.314 15.2946 123.148 15.0099 123.148 14.2579C123.148 13.5465 122.396 13.3228 121.542 13.1195C119.854 12.713 118.919 12.4284 118.208 11.9811C117.273 11.3916 116.948 10.6192 116.948 9.7247C116.948 8.03752 118.106 6.75684 121.155 6.75684C124.042 6.75684 125.343 7.89521 125.485 10.0499L122.944 10.0499Z" fill="black"/>
<path d="M137.714 12.713C137.795 14.2173 138.649 15.193 139.95 15.193C140.804 15.193 141.556 14.7661 141.739 14.0749H144.463C143.853 16.128 142.206 17.2867 140.072 17.2867C136.738 17.2867 135.071 15.4573 135.071 11.8388C135.071 8.74895 136.84 6.75684 139.909 6.75684C142.979 6.75684 144.605 8.74895 144.605 12.713H137.714ZM141.881 11.046C141.84 9.56208 140.865 8.85065 139.828 8.85065C138.771 8.85065 137.897 9.66377 137.795 11.046H141.881Z" fill="black"/>
<path d="M145.207 17.0225V7.02101H147.687V8.22046C148.561 6.87869 149.577 6.75684 150.654 6.75684H151V9.46053C150.756 9.41976 150.512 9.39945 150.268 9.39945C148.642 9.39945 147.849 10.2126 147.849 11.8185V17.0225L145.207 17.0225Z" fill="black"/>
<path d="M132.036 10.436H134.496V13.2819C134.496 15.396 133.276 17.2864 130.451 17.2864C127.524 17.2864 126.365 15.4163 126.365 13.2616V4.3172H128.967V7.02074H132.151L134.496 8.891H128.967V12.9972C128.967 14.2576 129.414 14.9895 130.491 14.9895C131.548 14.9895 132.036 14.2779 132.036 13.038V10.436Z" fill="black"/>
<path d="M95.2604 12.0218C95.2604 8.85065 97.2322 6.75684 100.403 6.75684C103.534 6.75684 105.485 8.83019 105.485 12.0218C105.485 15.193 103.514 17.2867 100.403 17.2867C97.1712 17.2867 95.2604 15.1321 95.2604 12.0218ZM102.822 12.0218C102.822 9.98902 102.009 8.99296 100.403 8.99296C98.7974 8.99296 97.9843 9.98902 97.9843 12.0218C97.9843 14.0546 98.7974 15.071 100.403 15.071C102.009 15.071 102.822 14.0546 102.822 12.0218Z" fill="black"/>
<path d="M42.0275 7.45304C41.8845 6.06413 41.047 5.38993 39.3312 5.38993C37.7379 5.38993 36.9004 5.96194 36.9004 6.98322C36.9004 7.84124 37.4928 8.33132 39.0043 8.69895C40.5364 9.06674 42.0275 9.43437 43.0284 9.88379C44.2131 10.4148 45.1527 11.2524 45.1527 13.1724C45.1527 16.1548 42.9058 17.4823 39.7398 17.4823C36.3898 17.4823 34.0612 15.9912 34 12.9476H36.737C36.778 14.3367 37.9423 15.1945 39.7602 15.1945C41.4351 15.1945 42.3951 14.4797 42.3951 13.2744C42.3951 12.4778 41.9865 11.9263 40.2912 11.5587C38.6163 11.1911 37.5337 10.9459 36.5736 10.5169C35.1233 9.86323 34.3063 8.88277 34.3063 7.16704C34.3063 4.73629 35.9609 3 39.2699 3C42.7016 3 44.6217 4.85889 44.7237 7.45304H42.0275Z" fill="black"/>
<path d="M61.1389 17.0125C61.0572 16.7674 60.9958 16.4202 60.9754 16.1138C60.3422 16.8084 59.2801 17.2781 57.9319 17.2781C55.6441 17.2781 54.582 16.1548 54.582 14.5207C54.582 11.6201 56.5225 11.2933 59.1983 10.9256C60.526 10.7417 60.8938 10.4761 60.8938 9.7816C60.8938 9.12796 60.2402 8.73992 59.1983 8.73992C57.9932 8.73992 57.503 9.33234 57.3804 10.231H54.9089C54.9497 8.1475 56.0935 6.69721 59.3209 6.69721C62.5074 6.69721 63.6104 8.12709 63.6104 10.6599V17.0125L61.1389 17.0125ZM60.955 12.0899C60.6894 12.3554 60.2196 12.4984 59.2391 12.6822C57.7276 12.9682 57.2374 13.3972 57.2374 14.2549C57.2374 15.0107 57.6868 15.3784 58.5243 15.3784C59.8928 15.3784 60.9142 14.3776 60.9346 13.1928L60.955 12.0899Z" fill="black"/>
<path d="M70.6302 17.0125L68.4241 12.4984L67.1372 13.826V17.0125H64.4614V3.286H67.1372V10.7826L70.4464 6.96281H73.6942L70.3238 10.6599L73.6124 17.0125L70.6302 17.0125Z" fill="black"/>
<path d="M75.5392 12.6822C75.621 14.1938 76.4788 15.1743 77.7861 15.1743C78.644 15.1743 79.3998 14.7453 79.5836 14.0508H82.3208C81.7079 16.1138 80.0534 17.2781 77.9087 17.2781C74.5587 17.2781 72.8838 15.4397 72.8838 11.8039C72.8838 8.69895 74.6609 6.69721 77.7453 6.69721C80.8297 6.69721 82.4638 8.69895 82.4638 12.6822H75.5392ZM79.7266 11.0073C79.6858 9.51615 78.7053 8.80114 77.6635 8.80114C76.6014 8.80114 75.7231 9.61834 75.6209 11.0073H79.7266Z" fill="black"/>
<path d="M51.509 10.436H53.9686V13.2819C53.9686 15.396 52.749 17.2864 49.9234 17.2864C46.9962 17.2864 45.8374 15.4163 45.8374 13.2616V4.3172H48.4394V7.02074H51.6232L53.9686 8.891H48.4394V12.9972C48.4394 14.2576 48.8867 14.9895 49.964 14.9895C51.0211 14.9895 51.509 14.2779 51.509 13.038L51.509 10.436Z" fill="black"/>
</svg>
