<svg width="22" height="29" viewBox="0 0 22 29" fill="none" xmlns="http://www.w3.org/2000/svg">
<path d="M2.2373 8.03711H19.887V18.4778H2.2373V8.03711Z" fill="black"/>
<path d="M0.0862651 7.72078C0.0897451 7.63773 0.0903426 7.55569 0.0914963 7.4726C0.109621 6.16906 0.720997 4.9388 1.76227 4.12167C7.14758 -0.104359 14.8804 -0.104359 20.2378 4.12167C21.2416 4.90945 21.846 6.08127 21.9043 7.33254C21.9125 7.50871 21.9177 7.68459 21.9287 7.86061C21.9557 8.29113 22 9.31339 22 11.3825C22 14.3565 21.9233 16.2609 21.9233 19.2005C21.9233 22.1462 17.3644 25.2867 13.824 27.7613C13.03 28.3163 11.9118 27.7498 11.9118 26.7848V19.2004H10.0882V26.8648C10.0882 27.8147 9.00551 28.3783 8.21989 27.8377C4.69496 25.4122 0.153673 22.1437 0.0767649 19.2004C0.0767649 16.2294 0 13.1328 0 11.3825C0 9.8884 0.0667348 8.18681 0.0862651 7.72078Z" fill="white"/>
<path d="M13.2217 13.1662C13.0455 12.3927 13.5304 11.6264 14.3049 11.4545L15.3993 11.2117C16.1738 11.0399 16.9446 11.5276 17.1208 12.3011L17.1559 12.4549C17.401 13.5302 16.7268 14.5956 15.6501 14.8345C14.5734 15.0734 13.5018 14.3953 13.2568 13.32L13.2217 13.1662Z" fill="white"/>
<path fill-rule="evenodd" clip-rule="evenodd" d="M19.4508 4.99997L19.4496 4.99907C14.5548 1.09559 7.47426 1.09321 2.54853 5.00091C1.78867 5.6037 1.34705 6.50705 1.33395 7.45903L1.33351 7.49368C1.33264 7.56301 1.33153 7.65219 1.32785 7.74095C1.30855 8.20665 1.24316 9.89493 1.24316 11.3695C1.24316 12.1237 1.2574 13.1322 1.27369 14.2861L1.2737 14.2867C1.27616 14.461 1.27867 14.6386 1.28118 14.8191C1.30018 16.1843 1.31928 17.7085 1.31943 19.2038C1.33425 19.6483 1.51895 20.1924 1.93651 20.8435C2.35514 21.4961 2.96318 22.1865 3.71273 22.8977C5.21513 24.3233 7.1493 25.707 8.90463 26.928C8.90554 26.9286 8.90629 26.9291 8.907 26.9296C8.90798 26.9293 8.90907 26.9289 8.91027 26.9285C8.912 26.9279 8.91395 26.927 8.91595 26.926C8.91801 26.9249 8.91982 26.9238 8.92136 26.9227C8.92222 26.922 8.92301 26.9214 8.92372 26.9209L8.92376 26.9184V18.0445H13.0767V26.838C13.0767 26.8394 13.0767 26.8406 13.0768 26.8416C13.0794 26.8443 13.0847 26.849 13.0938 26.8536C13.1079 26.8609 13.1191 26.8618 13.1226 26.8616L13.1235 26.8615L13.1242 26.8612C13.1242 26.8612 13.1248 26.861 13.1251 26.8608C13.1257 26.8605 13.1264 26.8601 13.1274 26.8595C13.1286 26.8588 13.1303 26.8577 13.1324 26.8563L13.2633 26.7638C15.0051 25.5331 16.8859 24.2043 18.3504 22.8357C19.0981 22.1369 19.6975 21.4635 20.104 20.8273C20.5123 20.1883 20.681 19.6575 20.681 19.221C20.681 17.74 20.7001 16.5189 20.7191 15.303L20.7193 15.2897C20.7384 14.0691 20.7573 12.8526 20.7573 11.3695C20.7573 9.30585 20.7135 8.30532 20.6887 7.90558C20.6807 7.77683 20.675 7.63564 20.67 7.51178C20.6677 7.4556 20.6656 7.40283 20.6635 7.35654C20.6213 6.44263 20.1845 5.58208 19.4519 5.0009L19.4508 4.99997Z" fill="white"/>
<path fill-rule="evenodd" clip-rule="evenodd" d="M1.23944 7.47209C1.25266 6.52275 1.69858 5.62191 2.46584 5.02078C7.4395 1.1239 14.5889 1.12627 19.5314 5.01894L19.5326 5.01984L19.5338 5.02078C20.2735 5.60034 20.7145 6.45852 20.7571 7.36991C20.7592 7.41606 20.7614 7.46856 20.7637 7.52463C20.7688 7.64816 20.7745 7.78904 20.7826 7.91742C20.8076 8.31607 20.8518 9.31382 20.8518 11.3718C20.8518 12.8508 20.8327 14.0639 20.8135 15.2811L20.8132 15.2943C20.7941 16.5068 20.7748 17.7247 20.7748 19.2016C20.7748 19.6369 20.6045 20.1661 20.1922 20.8034C19.7817 21.4379 19.1765 22.1094 18.4215 22.8062C16.9428 24.1711 15.0437 25.4962 13.2849 26.7234L13.1527 26.8157C13.1506 26.8172 13.1489 26.8182 13.1476 26.819C13.1466 26.8195 13.1459 26.8199 13.1454 26.8202C13.145 26.8204 13.1445 26.8206 13.1445 26.8206L13.144 26.8208L13.1428 26.821C13.1392 26.8212 13.128 26.8204 13.1137 26.8131C13.1046 26.8085 13.0992 26.8038 13.0966 26.8011C13.0965 26.8001 13.0965 26.7989 13.0965 26.7975V18.0283H8.90309V26.8776L8.90306 26.8801C8.90238 26.8807 8.90155 26.8813 8.90069 26.8819C8.89911 26.883 8.89731 26.8841 8.89524 26.8852C8.89321 26.8862 8.89126 26.8871 8.88949 26.8878C8.88829 26.8882 8.8872 26.8885 8.88618 26.8888C8.88551 26.8883 8.88468 26.8878 8.88382 26.8872C8.88013 26.8847 8.87645 26.8822 8.87277 26.8796C8.87179 26.879 8.87081 26.8783 8.86984 26.8776C8.86961 26.8775 8.86935 26.8773 8.86908 26.8771C8.82929 26.8498 8.78941 26.8224 8.74947 26.7949C7.01323 25.6 5.12017 24.2539 3.64137 22.8681C2.88452 22.1589 2.27057 21.4704 1.84787 20.8195C1.42624 20.1703 1.23975 19.6276 1.22477 19.1844C1.22462 17.6932 1.20534 16.1733 1.18616 14.8118C1.18362 14.6318 1.18109 14.4547 1.1786 14.2809L1.1786 14.2803C1.16215 13.1296 1.14777 12.1239 1.14777 11.3718C1.14777 9.90128 1.21379 8.21766 1.23328 7.75328C1.23699 7.66474 1.23811 7.57579 1.23899 7.50668L1.23944 7.47209ZM8.79637 27.0126C7.02458 25.7953 5.06248 24.4096 3.5359 22.979C2.77407 22.2651 2.1506 21.5671 1.71874 20.9021C1.2884 20.2395 1.08746 19.6699 1.07123 19.1895L1.07114 19.1869V19.1844C1.071 17.6944 1.05172 16.1754 1.03254 14.8139C1.03001 14.6339 1.02747 14.4569 1.02499 14.2831L1.02496 14.2813C1.00853 13.1315 0.994141 12.125 0.994141 11.3718C0.994141 9.89793 1.06027 8.21163 1.07978 7.74692C1.08339 7.66093 1.0845 7.57412 1.08537 7.50475L1.08582 7.46999C1.09969 6.47438 1.56736 5.53048 2.37065 4.90109C7.4 0.960588 14.6284 0.962663 19.6269 4.89947L19.628 4.90037L19.6289 4.90109C20.4034 5.50789 20.8659 6.40707 20.9105 7.36285C20.9127 7.40952 20.9149 7.46247 20.9172 7.51839C20.9223 7.64226 20.928 7.78149 20.9359 7.90795C20.9612 8.31081 21.0055 9.31198 21.0055 11.3718C21.0055 12.8521 20.9863 14.0664 20.9671 15.2835L20.9669 15.2943V15.2968C20.9477 16.5094 20.9285 17.726 20.9285 19.2016C20.9285 19.6761 20.7431 20.234 20.3215 20.8858C19.9014 21.5351 19.2861 22.2165 18.5262 22.9179C17.0397 24.2898 15.1337 25.6198 13.3785 26.8445L13.3753 26.8467L13.3742 26.8475L13.3732 26.8482L13.2412 26.9404C13.2411 26.9404 13.2412 26.9404 13.2412 26.9404M13.2412 26.9404C13.238 26.9426 13.2348 26.9447 13.2318 26.9466C13.2296 26.9479 13.2275 26.9493 13.2253 26.9505C13.2218 26.9526 13.2183 26.9544 13.2151 26.9561C13.213 26.9571 13.2113 26.9579 13.2108 26.9582L13.2094 26.9588L13.2076 26.9596L13.2051 26.9607L13.2045 26.961L13.1813 26.9708L13.1527 26.9732L13.1499 26.9734C13.119 26.9748 13.0813 26.9679 13.0437 26.9488C13.0186 26.9361 12.9999 26.9211 12.9865 26.9074L12.9461 26.8663L12.9431 26.8089C12.943 26.8053 12.9429 26.8015 12.9429 26.7975V18.1808H9.05672V26.8788L9.05556 26.9531L9.00054 26.998C8.99674 27.0011 8.99295 27.0039 8.98926 27.0065C8.98243 27.0113 8.97472 27.016 8.96634 27.0204C8.95811 27.0246 8.95022 27.028 8.94289 27.0307L8.9424 27.0309C8.93763 27.0326 8.93233 27.0344 8.92669 27.0359L8.86119 27.0537L8.80384 27.0175C8.80238 27.0166 8.80088 27.0156 8.7993 27.0146C8.79832 27.0139 8.79734 27.0133 8.79637 27.0126M13.0643 26.6909C13.0647 26.6907 13.0651 26.6904 13.0656 26.6901L13.0643 26.6909Z" fill="white"/>
<path fill-rule="evenodd" clip-rule="evenodd" d="M19.5053 5.03936L19.5064 5.0403L19.5076 5.0412C20.2451 5.6199 20.6847 6.47676 20.7271 7.38677C20.7293 7.43284 20.7314 7.48526 20.7337 7.54122C20.7388 7.66456 20.7446 7.80526 20.7526 7.93344C20.7775 8.33149 20.8216 9.32774 20.8216 11.3825C20.8216 12.8593 20.8025 14.0706 20.7834 15.286L20.7832 15.2989C20.764 16.5096 20.7448 17.7257 20.7448 19.2005C20.7448 19.6351 20.575 20.1636 20.164 20.7998C19.7548 21.4333 19.1514 22.1039 18.3988 22.7996C16.9246 24.1624 15.0314 25.4855 13.278 26.7109L13.1462 26.803C13.1426 26.8055 13.1402 26.8069 13.139 26.8075C13.1383 26.8078 13.1376 26.8081 13.1376 26.8081L13.1371 26.8083L13.1364 26.8083C13.1328 26.8085 13.1216 26.8076 13.1074 26.8004C13.0983 26.7958 13.0929 26.7911 13.0903 26.7884C13.0902 26.7874 13.0902 26.7862 13.0902 26.7848V18.0289H13.0724V16.9164L16.7693 17.1588C18.2262 17.2543 19.4607 16.1053 19.4607 14.6538V12.3989C19.4607 10.9173 18.1768 9.75807 16.6934 9.90013L12.3279 10.3183C11.5011 10.3975 10.6684 10.3975 9.84156 10.3183L5.47614 9.90013C3.9927 9.75807 2.7088 10.9173 2.7088 12.3989V14.6538C2.7088 16.1053 3.94332 17.2543 5.40015 17.1588L8.92746 16.9275V18.0289H8.9098V26.8648C8.9098 26.8657 8.9098 26.8666 8.90976 26.8673C8.90784 26.8689 8.90521 26.8707 8.90194 26.8724C8.89852 26.8742 8.8954 26.8753 8.89292 26.876C8.89225 26.8756 8.89146 26.875 8.89056 26.8744C7.12361 25.6586 5.17663 24.2809 3.66431 22.8614C2.90981 22.1532 2.29775 21.4658 1.87635 20.8159C1.45602 20.1677 1.27011 19.6258 1.25518 19.1833C1.25503 17.6944 1.2358 16.1768 1.21668 14.8173C1.21415 14.6374 1.21162 14.4604 1.20914 14.2867C1.19274 13.1377 1.17841 12.1336 1.17841 11.3826C1.17841 9.9143 1.24422 8.23323 1.26366 7.76956C1.26736 7.68118 1.26848 7.59234 1.26935 7.52334C1.26951 7.5112 1.26965 7.49963 1.2698 7.4888C1.28298 6.54092 1.72753 5.64144 2.49241 5.04121C7.45071 1.15025 14.5781 1.15262 19.5053 5.03936ZM10.0882 25.3891V26.8648C10.0882 27.8147 9.00551 28.3783 8.2199 27.8377C4.69496 25.4122 0.153676 22.1437 0.0767687 19.2004C0.0767687 17.5196 0.0521988 15.7985 0.030857 14.3038C0.0144759 13.1565 0 12.1426 0 11.3825C0 9.8884 0.0667348 8.18681 0.0862651 7.72078C0.0891889 7.65099 0.0900795 7.58188 0.0909739 7.51228C0.091143 7.49909 0.0913159 7.48586 0.0915001 7.4726C0.109625 6.16906 0.721001 4.9388 1.76227 4.12167C7.14759 -0.104359 14.8804 -0.104359 20.2378 4.12167C21.2416 4.90945 21.846 6.08127 21.9043 7.33254C21.9071 7.39255 21.9095 7.45253 21.912 7.51251C21.9167 7.62856 21.9215 7.74457 21.9287 7.86061C21.9557 8.29113 22 9.31339 22 11.3825C22 12.8738 21.9807 14.0962 21.9615 15.315C21.9423 16.5267 21.9233 17.735 21.9233 19.2005C21.9233 22.1016 17.5012 25.1917 13.9853 27.6486L13.9449 27.6769C13.9045 27.7051 13.8642 27.7333 13.824 27.7613C13.03 28.3163 11.9118 27.7498 11.9118 26.7848V25.389C11.6366 25.4255 11.3271 25.435 10.9999 25.435C10.6728 25.435 10.3633 25.4255 10.0882 25.3891Z" fill="url(#paint0_linear_95_1664)"/>
<path d="M5.96582 12.836C5.96582 12.2448 6.44376 11.7656 7.03328 11.7656H7.50856C8.09808 11.7656 8.57602 12.2448 8.57602 12.836V14.4058C8.57602 14.7237 8.33318 14.9886 8.01728 15.0153L6.79236 15.1188C6.34756 15.1564 5.96582 14.8045 5.96582 14.357V12.836Z" fill="white"/>
<path d="M13.2998 12.8303C13.2998 12.2423 13.7777 11.7656 14.3673 11.7656H14.8425C15.4321 11.7656 15.91 12.2423 15.91 12.8303V14.3611C15.91 14.8093 15.5233 15.1603 15.0758 15.1181L13.8524 15.0029C13.5392 14.9734 13.2998 14.711 13.2998 14.3972V12.8303Z" fill="white"/>
<defs>
<linearGradient id="paint0_linear_95_1664" x1="11" y1="0.952149" x2="11" y2="28.0482" gradientUnits="userSpaceOnUse">
<stop offset="0.34248" stop-color="#0173B3"/>
<stop offset="0.62809" stop-color="#004E92"/>
<stop offset="1" stop-color="#000428"/>
</linearGradient>
</defs>
</svg>
