<svg width="18" height="16" viewBox="0 0 18 16" fill="none" xmlns="http://www.w3.org/2000/svg">
<path fill-rule="evenodd" clip-rule="evenodd" d="M3.1296 0.63817L0.0128067 7.18499C0.000951382 7.20934 -0.00280423 7.23685 0.00208879 7.26348C0.00698181 7.29012 0.0202669 7.3145 0.0400023 7.33305L8.45773 15.3992C8.48164 15.4222 8.51349 15.435 8.54663 15.435C8.57977 15.435 8.61163 15.4222 8.63553 15.3992L17.0533 7.3336C17.073 7.31505 17.0863 7.29068 17.0912 7.26404C17.0961 7.2374 17.0923 7.20989 17.0805 7.18554L13.9637 0.638653C13.9536 0.616645 13.9374 0.598 13.9171 0.58495C13.8967 0.5719 13.873 0.564999 13.8488 0.565073H3.24542C3.22112 0.56477 3.19725 0.571511 3.1767 0.584483C3.15614 0.597455 3.13978 0.616102 3.1296 0.63817Z" fill="#50AF95"/>
<path fill-rule="evenodd" clip-rule="evenodd" d="M9.62828 7.85721C9.56788 7.86177 9.25555 7.88041 8.55916 7.88041C8.00517 7.88041 7.6118 7.86377 7.47389 7.85721C5.33303 7.76307 3.73512 7.3904 3.73512 6.94416C3.73512 6.49792 5.33303 6.12581 7.47389 6.03014V7.48607C7.61387 7.49615 8.0147 7.51982 8.56868 7.51982C9.23346 7.51982 9.56636 7.49221 9.62628 7.48655V6.03111C11.7626 6.12629 13.357 6.49895 13.357 6.94416C13.357 7.38937 11.7631 7.76203 9.62628 7.85666L9.62828 7.85721ZM9.62828 5.88057V4.57773H12.6096V2.591H4.49252V4.57773H7.47313V5.88001C5.05038 5.99128 3.22813 6.47128 3.22813 7.04652C3.22813 7.62177 5.05038 8.10108 7.47313 8.21304V12.3876H9.62752V8.21124C12.0448 8.09997 13.8638 7.62053 13.8638 7.0459C13.8638 6.47128 12.0465 5.99183 9.62772 5.88001L9.62828 5.88057Z" fill="white"/>
</svg>
