<svg width="17" height="17" viewBox="0 0 17 17" fill="none" xmlns="http://www.w3.org/2000/svg">
<path d="M8.5 17C13.1944 17 17 13.1944 17 8.5C17 3.80558 13.1944 0 8.5 0C3.80558 0 0 3.80558 0 8.5C0 13.1944 3.80558 17 8.5 17Z" fill="#7EE989"/>
<path d="M15.3577 8.96652H12.8331V7.988H14.2668C14.23 6.33537 13.0459 4.03549 10.6506 3.08891C8.22978 2.13222 5.30599 2.84669 3.63515 5.29017H2.41217C2.91087 4.33368 3.58204 3.56004 4.43172 2.94356C5.93577 1.8523 7.62287 1.41773 9.45615 1.68037C13.3301 2.23538 15.6417 5.70153 15.3577 8.96652Z" fill="#2E3A59"/>
<path d="M1.64321 7.99762H4.37091V8.96446H2.70356C2.75244 9.68547 2.93453 10.3414 3.23063 10.9667C3.81186 12.1942 4.71243 13.1182 5.92751 13.7188C8.30542 14.8941 11.3535 14.3648 13.1804 11.9672H14.4114C13.4465 13.8783 10.6286 15.9768 7.08859 15.239C3.51568 14.4944 1.36289 11.2067 1.64321 7.99762Z" fill="#2E3A59"/>
<path d="M9.13689 11.9516H7.89321C7.06513 9.87203 6.23586 7.7895 5.39702 5.68292H6.74197C7.32761 7.27118 7.91408 8.86171 8.51951 10.5036C9.11634 8.86813 9.69473 7.28317 10.278 5.68469H11.623C10.7909 7.78219 9.96462 9.86503 9.13689 11.9516Z" fill="#2E3A59"/>
</svg>
