<svg width="24" height="24" viewBox="0 0 24 24" fill="none" xmlns="http://www.w3.org/2000/svg">
<rect width="24" height="24" fill="black"/>
<path d="M8.16961 5H16.803L20 12.0292H16.5407V12.1755C17.2103 12.3184 17.77 12.5898 18.2199 12.9895C18.6697 13.3892 18.9759 13.8411 19.1382 14.3446C19.3006 14.8484 19.3477 15.3749 19.2803 15.924C19.2125 16.4734 19.0383 16.9754 18.7576 17.4304C18.477 17.8853 18.0728 18.2607 17.5452 18.5563C17.0176 18.8523 16.4189 19 15.7492 19H7.19698L4 12.0292H7.85506V11.8928C6.8201 11.6978 6.00993 11.3045 5.42493 10.7131C4.83978 10.1217 4.54725 9.37744 4.54725 8.4805C4.54725 7.57052 4.90394 6.76312 5.61772 6.05772C6.33134 5.35262 7.18187 5 8.16961 5Z" fill="#E9F2FF"/>
</svg>
