<svg width="256" height="256" viewBox="0 0 256 256" fill="none" xmlns="http://www.w3.org/2000/svg">
<rect width="256" height="256" fill="black"/>
<path d="M87.3021 50H179.032L213 127.824H176.245V129.443C183.36 131.025 189.306 134.029 194.086 138.455C198.866 142.88 202.119 147.884 203.843 153.458C205.568 159.036 206.069 164.865 205.353 170.944C204.633 177.027 202.782 182.585 199.8 187.622C196.818 192.658 192.524 196.815 186.918 200.088C181.311 203.364 174.951 205 167.835 205H76.968L43 127.824H83.96V126.313C72.9636 124.154 64.3555 119.8 58.1399 113.252C51.9227 106.704 48.8145 98.4645 48.8145 88.5341C48.8145 78.4593 52.6044 69.5203 60.1883 61.7105C67.7705 53.904 76.8074 50 87.3021 50Z" fill="#E9F2FF"/>
</svg>
